<svg width="20" height="20" viewBox="0 0 20 20" fill="none" xmlns="http://www.w3.org/2000/svg">
<g clip-path="url(#clip0_63_48)">
<path d="M18.3262 9.99609H1.66602" stroke="#90A1B9" stroke-width="1.66602" stroke-linecap="round" stroke-linejoin="round"/>
<path d="M4.53989 4.25667L1.66602 9.99609V14.9941C1.66602 15.436 1.84154 15.8598 2.15398 16.1722C2.46642 16.4846 2.89018 16.6602 3.33203 16.6602H16.6602C17.102 16.6602 17.5258 16.4846 17.8382 16.1722C18.1506 15.8598 18.3262 15.436 18.3262 14.9941V9.99609L15.4523 4.25667C15.3144 3.9791 15.1017 3.74551 14.8383 3.58217C14.5749 3.41882 14.2712 3.3322 13.9612 3.33203H6.03098C5.72103 3.3322 5.41727 3.41882 5.15386 3.58217C4.89044 3.74551 4.67782 3.9791 4.53989 4.25667Z" stroke="#90A1B9" stroke-width="1.66602" stroke-linecap="round" stroke-linejoin="round"/>
<path d="M4.99805 13.3281H5.00638" stroke="#90A1B9" stroke-width="1.66602" stroke-linecap="round" stroke-linejoin="round"/>
<path d="M8.33008 13.3281H8.33841" stroke="#90A1B9" stroke-width="1.66602" stroke-linecap="round" stroke-linejoin="round"/>
</g>
<defs>
<clipPath id="clip0_63_48">
<rect width="19.9922" height="19.9922" fill="white"/>
</clipPath>
</defs>
</svg>
