<svg width="20" height="20" viewBox="0 0 20 20" fill="none" xmlns="http://www.w3.org/2000/svg">
<g clip-path="url(#clip0_63_56)">
<path d="M18.3262 9.99609H16.2603C15.8963 9.99532 15.542 10.1138 15.2516 10.3334C14.9613 10.5531 14.7509 10.8618 14.6526 11.2123L12.695 18.1762C12.6824 18.2195 12.6561 18.2575 12.6201 18.2845C12.584 18.3116 12.5402 18.3262 12.4951 18.3262C12.4501 18.3262 12.4062 18.3116 12.3702 18.2845C12.3341 18.2575 12.3078 18.2195 12.2952 18.1762L7.69699 1.81596C7.68438 1.7727 7.65807 1.7347 7.62202 1.70767C7.58597 1.68063 7.54213 1.66602 7.49707 1.66602C7.45201 1.66602 7.40817 1.68063 7.37212 1.70767C7.33607 1.7347 7.30977 1.7727 7.29715 1.81596L5.33958 8.7799C5.24167 9.12906 5.03252 9.43674 4.74387 9.65624C4.45521 9.87573 4.10283 9.99506 3.7402 9.99609H1.66602" stroke="#90A1B9" stroke-width="1.66602" stroke-linecap="round" stroke-linejoin="round"/>
</g>
<defs>
<clipPath id="clip0_63_56">
<rect width="19.9922" height="19.9922" fill="white"/>
</clipPath>
</defs>
</svg>
