<svg width="40" height="40" viewBox="0 0 40 40" fill="none" xmlns="http://www.w3.org/2000/svg">
<path opacity="0.9" d="M20 14.8002C26.6274 14.8002 32 12.6512 32 10.0002C32 7.34923 26.6274 5.2002 20 5.2002C13.3726 5.2002 8 7.34923 8 10.0002C8 12.6512 13.3726 14.8002 20 14.8002Z" fill="url(#paint0_linear_84_456)"/>
<path opacity="0.8" d="M32 10H8V30H32V10Z" fill="url(#paint1_linear_84_456)"/>
<path opacity="0.6" d="M20 20.8002C26.6274 20.8002 32 18.6512 32 16.0002C32 13.3492 26.6274 11.2002 20 11.2002C13.3726 11.2002 8 13.3492 8 16.0002C8 18.6512 13.3726 20.8002 20 20.8002Z" stroke="#FBBF24" stroke-width="0.8"/>
<path opacity="0.6" d="M20 26.8002C26.6274 26.8002 32 24.6512 32 22.0002C32 19.3492 26.6274 17.2002 20 17.2002C13.3726 17.2002 8 19.3492 8 22.0002C8 24.6512 13.3726 26.8002 20 26.8002Z" stroke="#FBBF24" stroke-width="0.8"/>
<path opacity="0.9" d="M20 34.8002C26.6274 34.8002 32 32.6512 32 30.0002C32 27.3492 26.6274 25.2002 20 25.2002C13.3726 25.2002 8 27.3492 8 30.0002C8 32.6512 13.3726 34.8002 20 34.8002Z" fill="url(#paint2_linear_84_456)"/>
<path opacity="0.95" d="M26 6L22 16H26L22 26L30 14H26V6Z" fill="#FBBF24" stroke="#D97706" stroke-width="0.6" stroke-linejoin="round"/>
<path opacity="0.9" d="M6 24V31.2L8.4 29.6L9.6 32L10.8 31.6L9.6 29.2H12L6 24Z" fill="#FBBF24" stroke="#D97706" stroke-width="0.4"/>
<defs>
<linearGradient id="paint0_linear_84_456" x1="8" y1="5.2002" x2="670.069" y2="1660.37" gradientUnits="userSpaceOnUse">
<stop stop-color="#FBBF24"/>
<stop offset="0.5" stop-color="#F59E0B"/>
<stop offset="1" stop-color="#D97706"/>
</linearGradient>
<linearGradient id="paint1_linear_84_456" x1="8" y1="10" x2="1975.21" y2="2370.66" gradientUnits="userSpaceOnUse">
<stop stop-color="#FBBF24"/>
<stop offset="0.5" stop-color="#F59E0B"/>
<stop offset="1" stop-color="#D97706"/>
</linearGradient>
<linearGradient id="paint2_linear_84_456" x1="8" y1="25.2002" x2="670.069" y2="1680.37" gradientUnits="userSpaceOnUse">
<stop stop-color="#FBBF24"/>
<stop offset="0.5" stop-color="#F59E0B"/>
<stop offset="1" stop-color="#D97706"/>
</linearGradient>
</defs>
</svg>
