<svg width="16" height="16" viewBox="0 0 16 16" fill="none" xmlns="http://www.w3.org/2000/svg">
<g clip-path="url(#clip0_63_701)">
<path d="M14.5197 6.65998C14.8239 8.15272 14.6071 9.70462 13.9055 11.0569C13.204 12.4091 12.06 13.48 10.6645 14.0909C9.26893 14.7018 7.70612 14.8159 6.23667 14.414C4.76723 14.0121 3.47996 13.1186 2.58956 11.8825C1.69915 10.6464 1.25942 9.14238 1.3437 7.6213C1.42798 6.10022 2.03117 4.65401 3.05269 3.52383C4.0742 2.39366 5.4523 1.64784 6.95715 1.41075C8.462 1.17366 10.0026 1.45964 11.3222 2.22099" stroke="#05DF72" stroke-width="1.33203" stroke-linecap="round" stroke-linejoin="round"/>
<path d="M5.99414 7.32617L7.99219 9.32422L14.6523 2.66406" stroke="#05DF72" stroke-width="1.33203" stroke-linecap="round" stroke-linejoin="round"/>
</g>
<defs>
<clipPath id="clip0_63_701">
<rect width="15.9844" height="15.9844" fill="white"/>
</clipPath>
</defs>
</svg>
