<svg width="20" height="20" viewBox="0 0 20 20" fill="none" xmlns="http://www.w3.org/2000/svg">
<path d="M8.05604 3.44545C8.10194 2.96259 8.32621 2.51419 8.68505 2.18784C9.04388 1.8615 9.5115 1.68066 9.99653 1.68066C10.4816 1.68066 10.9492 1.8615 11.308 2.18784C11.6669 2.51419 11.8911 2.96259 11.937 3.44545C11.9646 3.75738 12.0669 4.05806 12.2354 4.32206C12.4038 4.58606 12.6333 4.80559 12.9045 4.96209C13.1758 5.11859 13.4807 5.20743 13.7936 5.22111C14.1064 5.23479 14.4179 5.17289 14.7018 5.04066C15.1425 4.84056 15.642 4.8116 16.1029 4.95943C16.5638 5.10726 16.9533 5.42131 17.1954 5.84044C17.4375 6.25957 17.5151 6.7538 17.4129 7.22695C17.3108 7.7001 17.0362 8.11831 16.6427 8.40018C16.3864 8.57998 16.1773 8.81886 16.0329 9.0966C15.8884 9.37434 15.813 9.68277 15.813 9.99581C15.813 10.3088 15.8884 10.6173 16.0329 10.895C16.1773 11.1728 16.3864 11.4116 16.6427 11.5914C17.0362 11.8733 17.3108 12.2915 17.4129 12.7647C17.5151 13.2378 17.4375 13.7321 17.1954 14.1512C16.9533 14.5703 16.5638 14.8844 16.1029 15.0322C15.642 15.18 15.1425 15.1511 14.7018 14.951C14.4179 14.8187 14.1064 14.7568 13.7936 14.7705C13.4807 14.7842 13.1758 14.873 12.9045 15.0295C12.6333 15.186 12.4038 15.4056 12.2354 15.6696C12.0669 15.9336 11.9646 16.2342 11.937 16.5462C11.8911 17.029 11.6669 17.4774 11.308 17.8038C10.9492 18.1301 10.4816 18.311 9.99653 18.311C9.5115 18.311 9.04388 18.1301 8.68505 17.8038C8.32621 17.4774 8.10194 17.029 8.05604 16.5462C8.02851 16.2341 7.92617 15.9333 7.75771 15.6692C7.58925 15.4051 7.35963 15.1855 7.08828 15.029C6.81694 14.8725 6.51187 14.7837 6.19892 14.7701C5.88596 14.7565 5.57435 14.8186 5.29046 14.951C4.8497 15.1511 4.35026 15.18 3.88934 15.0322C3.42841 14.8844 3.03898 14.5703 2.79683 14.1512C2.55469 13.7321 2.47715 13.2378 2.57932 12.7647C2.68148 12.2915 2.95604 11.8733 3.34955 11.5914C3.6058 11.4116 3.81497 11.1728 3.95938 10.895C4.10379 10.6173 4.17919 10.3088 4.17919 9.99581C4.17919 9.68277 4.10379 9.37434 3.95938 9.0966C3.81497 8.81886 3.6058 8.57998 3.34955 8.40018C2.95659 8.11816 2.68252 7.70012 2.5806 7.22729C2.47868 6.75447 2.5562 6.26064 2.79808 5.84178C3.03997 5.42292 3.42894 5.10895 3.88941 4.96089C4.34988 4.81284 4.84895 4.84127 5.28962 5.04066C5.57348 5.17289 5.88501 5.23479 6.19785 5.22111C6.51069 5.20743 6.81564 5.11859 7.08687 4.96209C7.3581 4.80559 7.58764 4.58606 7.75605 4.32206C7.92446 4.05806 8.02679 3.75738 8.05438 3.44545" stroke="#90A1B9" stroke-width="1.66602" stroke-linecap="round" stroke-linejoin="round"/>
<path d="M9.99609 12.4951C11.3763 12.4951 12.4951 11.3763 12.4951 9.99609C12.4951 8.61592 11.3763 7.49707 9.99609 7.49707C8.61592 7.49707 7.49707 8.61592 7.49707 9.99609C7.49707 11.3763 8.61592 12.4951 9.99609 12.4951Z" stroke="#90A1B9" stroke-width="1.66602" stroke-linecap="round" stroke-linejoin="round"/>
</svg>
