<svg width="20" height="20" viewBox="0 0 20 20" fill="none" xmlns="http://www.w3.org/2000/svg">
<path d="M7.49707 2.49902H3.33203C2.87197 2.49902 2.49902 2.87197 2.49902 3.33203V9.16309C2.49902 9.62314 2.87197 9.99609 3.33203 9.99609H7.49707C7.95713 9.99609 8.33008 9.62314 8.33008 9.16309V3.33203C8.33008 2.87197 7.95713 2.49902 7.49707 2.49902Z" stroke="#90A1B9" stroke-width="1.66602" stroke-linecap="round" stroke-linejoin="round"/>
<path d="M16.6602 2.49902H12.4951C12.0351 2.49902 11.6621 2.87197 11.6621 3.33203V5.83105C11.6621 6.29111 12.0351 6.66406 12.4951 6.66406H16.6602C17.1202 6.66406 17.4932 6.29111 17.4932 5.83105V3.33203C17.4932 2.87197 17.1202 2.49902 16.6602 2.49902Z" stroke="#90A1B9" stroke-width="1.66602" stroke-linecap="round" stroke-linejoin="round"/>
<path d="M16.6602 9.99609H12.4951C12.0351 9.99609 11.6621 10.369 11.6621 10.8291V16.6602C11.6621 17.1202 12.0351 17.4932 12.4951 17.4932H16.6602C17.1202 17.4932 17.4932 17.1202 17.4932 16.6602V10.8291C17.4932 10.369 17.1202 9.99609 16.6602 9.99609Z" stroke="#90A1B9" stroke-width="1.66602" stroke-linecap="round" stroke-linejoin="round"/>
<path d="M7.49707 13.3281H3.33203C2.87197 13.3281 2.49902 13.7011 2.49902 14.1611V16.6602C2.49902 17.1202 2.87197 17.4932 3.33203 17.4932H7.49707C7.95713 17.4932 8.33008 17.1202 8.33008 16.6602V14.1611C8.33008 13.7011 7.95713 13.3281 7.49707 13.3281Z" stroke="#90A1B9" stroke-width="1.66602" stroke-linecap="round" stroke-linejoin="round"/>
</svg>
