<svg width="16" height="16" viewBox="0 0 16 16" fill="none" xmlns="http://www.w3.org/2000/svg">
<g clip-path="url(#clip0_63_716)">
<path d="M7.99219 5.32812C11.3027 5.32812 13.9863 4.43357 13.9863 3.33008C13.9863 2.22659 11.3027 1.33203 7.99219 1.33203C4.68172 1.33203 1.99805 2.22659 1.99805 3.33008C1.99805 4.43357 4.68172 5.32812 7.99219 5.32812Z" stroke="#90A1B9" stroke-width="1.33203" stroke-linecap="round" stroke-linejoin="round"/>
<path d="M1.99805 3.33008V12.6543C1.99805 13.1842 2.62957 13.6924 3.75369 14.0671C4.87781 14.4418 6.40244 14.6523 7.99219 14.6523C9.58193 14.6523 11.1066 14.4418 12.2307 14.0671C13.3548 13.6924 13.9863 13.1842 13.9863 12.6543V3.33008" stroke="#90A1B9" stroke-width="1.33203" stroke-linecap="round" stroke-linejoin="round"/>
<path d="M1.99805 7.99219C1.99805 8.5221 2.62957 9.03031 3.75369 9.40502C4.87781 9.77973 6.40244 9.99023 7.99219 9.99023C9.58193 9.99023 11.1066 9.77973 12.2307 9.40502C13.3548 9.03031 13.9863 8.5221 13.9863 7.99219" stroke="#90A1B9" stroke-width="1.33203" stroke-linecap="round" stroke-linejoin="round"/>
</g>
<defs>
<clipPath id="clip0_63_716">
<rect width="15.9844" height="15.9844" fill="white"/>
</clipPath>
</defs>
</svg>
