<svg width="72" height="72" viewBox="0 0 72 72" fill="none" xmlns="http://www.w3.org/2000/svg">
<g filter="url(#filter0_dd_24_690)">
<path d="M12 12C12 6.47715 16.4772 2 22 2H50C55.5228 2 60 6.47715 60 12V40C60 45.5228 55.5228 50 50 50H22C16.4772 50 12 45.5228 12 40V12Z" fill="url(#paint0_linear_24_690)" shape-rendering="crispEdges"/>
<path d="M40 35V33C40 31.9391 39.5786 30.9217 38.8284 30.1716C38.0783 29.4214 37.0609 29 36 29H30C28.9391 29 27.9217 29.4214 27.1716 30.1716C26.4214 30.9217 26 31.9391 26 33V35" stroke="white" stroke-width="2" stroke-linecap="round" stroke-linejoin="round"/>
<path d="M40 17.1281C40.8578 17.3504 41.6174 17.8513 42.1597 18.5521C42.702 19.2529 42.9962 20.1139 42.9962 21.0001C42.9962 21.8862 42.702 22.7472 42.1597 23.448C41.6174 24.1488 40.8578 24.6497 40 24.8721" stroke="white" stroke-width="2" stroke-linecap="round" stroke-linejoin="round"/>
<path d="M46 35V33C45.9993 32.1137 45.7044 31.2528 45.1614 30.5523C44.6184 29.8519 43.8581 29.3516 43 29.13" stroke="white" stroke-width="2" stroke-linecap="round" stroke-linejoin="round"/>
<path d="M33 25C35.2091 25 37 23.2091 37 21C37 18.7909 35.2091 17 33 17C30.7909 17 29 18.7909 29 21C29 23.2091 30.7909 25 33 25Z" stroke="white" stroke-width="2" stroke-linecap="round" stroke-linejoin="round"/>
</g>
<defs>
<filter id="filter0_dd_24_690" x="0" y="0" width="72" height="72" filterUnits="userSpaceOnUse" color-interpolation-filters="sRGB">
<feFlood flood-opacity="0" result="BackgroundImageFix"/>
<feColorMatrix in="SourceAlpha" type="matrix" values="0 0 0 0 0 0 0 0 0 0 0 0 0 0 0 0 0 0 127 0" result="hardAlpha"/>
<feMorphology radius="4" operator="erode" in="SourceAlpha" result="effect1_dropShadow_24_690"/>
<feOffset dy="4"/>
<feGaussianBlur stdDeviation="3"/>
<feComposite in2="hardAlpha" operator="out"/>
<feColorMatrix type="matrix" values="0 0 0 0 0 0 0 0 0 0 0 0 0 0 0 0 0 0 0.1 0"/>
<feBlend mode="normal" in2="BackgroundImageFix" result="effect1_dropShadow_24_690"/>
<feColorMatrix in="SourceAlpha" type="matrix" values="0 0 0 0 0 0 0 0 0 0 0 0 0 0 0 0 0 0 127 0" result="hardAlpha"/>
<feMorphology radius="3" operator="erode" in="SourceAlpha" result="effect2_dropShadow_24_690"/>
<feOffset dy="10"/>
<feGaussianBlur stdDeviation="7.5"/>
<feComposite in2="hardAlpha" operator="out"/>
<feColorMatrix type="matrix" values="0 0 0 0 0 0 0 0 0 0 0 0 0 0 0 0 0 0 0.1 0"/>
<feBlend mode="normal" in2="effect1_dropShadow_24_690" result="effect2_dropShadow_24_690"/>
<feBlend mode="normal" in="SourceGraphic" in2="effect2_dropShadow_24_690" result="shape"/>
</filter>
<linearGradient id="paint0_linear_24_690" x1="12" y1="2" x2="60" y2="50" gradientUnits="userSpaceOnUse">
<stop stop-color="#22C55E"/>
<stop offset="1" stop-color="#10B981"/>
</linearGradient>
</defs>
</svg>
