<svg width="72" height="72" viewBox="0 0 72 72" fill="none" xmlns="http://www.w3.org/2000/svg">
<g filter="url(#filter0_dd_24_657)">
<path d="M12 12C12 6.47715 16.4772 2 22 2H50C55.5228 2 60 6.47715 60 12V40C60 45.5228 55.5228 50 50 50H22C16.4772 50 12 45.5228 12 40V12Z" fill="url(#paint0_linear_24_657)" shape-rendering="crispEdges"/>
<path d="M30 33V30" stroke="white" stroke-width="2" stroke-linecap="round" stroke-linejoin="round"/>
<path d="M34 33V30" stroke="white" stroke-width="2" stroke-linecap="round" stroke-linejoin="round"/>
<path d="M38 33V30" stroke="white" stroke-width="2" stroke-linecap="round" stroke-linejoin="round"/>
<path d="M42 33V30" stroke="white" stroke-width="2" stroke-linecap="round" stroke-linejoin="round"/>
<path d="M32 25V23" stroke="white" stroke-width="2" stroke-linecap="round" stroke-linejoin="round"/>
<path d="M40 25V23" stroke="white" stroke-width="2" stroke-linecap="round" stroke-linejoin="round"/>
<path d="M36 25V23" stroke="white" stroke-width="2" stroke-linecap="round" stroke-linejoin="round"/>
<path d="M26 29H46" stroke="white" stroke-width="2" stroke-linecap="round" stroke-linejoin="round"/>
<path d="M26 21C26 20.4696 26.2107 19.9609 26.5858 19.5858C26.9609 19.2107 27.4696 19 28 19H44C44.5304 19 45.0391 19.2107 45.4142 19.5858C45.7893 19.9609 46 20.4696 46 21V22.1C45.5858 22.222 45.2222 22.4748 44.9635 22.8206C44.7049 23.1664 44.5651 23.5867 44.5651 24.0185C44.5651 24.4503 44.7049 24.8706 44.9635 25.2164C45.2222 25.5622 45.5858 25.815 46 25.937V31C46 31.5304 45.7893 32.0391 45.4142 32.4142C45.0391 32.7893 44.5304 33 44 33H28C27.4696 33 26.9609 32.7893 26.5858 32.4142C26.2107 32.0391 26 31.5304 26 31V25.9C26.4142 25.778 26.7778 25.5252 27.0365 25.1794C27.2951 24.8336 27.4349 24.4133 27.4349 23.9815C27.4349 23.5497 27.2951 23.1294 27.0365 22.7836C26.7778 22.4378 26.4142 22.185 26 22.063V21Z" stroke="white" stroke-width="2" stroke-linecap="round" stroke-linejoin="round"/>
</g>
<defs>
<filter id="filter0_dd_24_657" x="0" y="0" width="72" height="72" filterUnits="userSpaceOnUse" color-interpolation-filters="sRGB">
<feFlood flood-opacity="0" result="BackgroundImageFix"/>
<feColorMatrix in="SourceAlpha" type="matrix" values="0 0 0 0 0 0 0 0 0 0 0 0 0 0 0 0 0 0 127 0" result="hardAlpha"/>
<feMorphology radius="4" operator="erode" in="SourceAlpha" result="effect1_dropShadow_24_657"/>
<feOffset dy="4"/>
<feGaussianBlur stdDeviation="3"/>
<feComposite in2="hardAlpha" operator="out"/>
<feColorMatrix type="matrix" values="0 0 0 0 0 0 0 0 0 0 0 0 0 0 0 0 0 0 0.1 0"/>
<feBlend mode="normal" in2="BackgroundImageFix" result="effect1_dropShadow_24_657"/>
<feColorMatrix in="SourceAlpha" type="matrix" values="0 0 0 0 0 0 0 0 0 0 0 0 0 0 0 0 0 0 127 0" result="hardAlpha"/>
<feMorphology radius="3" operator="erode" in="SourceAlpha" result="effect2_dropShadow_24_657"/>
<feOffset dy="10"/>
<feGaussianBlur stdDeviation="7.5"/>
<feComposite in2="hardAlpha" operator="out"/>
<feColorMatrix type="matrix" values="0 0 0 0 0 0 0 0 0 0 0 0 0 0 0 0 0 0 0.1 0"/>
<feBlend mode="normal" in2="effect1_dropShadow_24_657" result="effect2_dropShadow_24_657"/>
<feBlend mode="normal" in="SourceGraphic" in2="effect2_dropShadow_24_657" result="shape"/>
</filter>
<linearGradient id="paint0_linear_24_657" x1="12" y1="2" x2="60" y2="50" gradientUnits="userSpaceOnUse">
<stop stop-color="#A855F7"/>
<stop offset="1" stop-color="#EC4899"/>
</linearGradient>
</defs>
</svg>
