<svg width="40" height="40" viewBox="0 0 40 40" fill="none" xmlns="http://www.w3.org/2000/svg">
<path d="M0 10C0 4.47715 4.47715 0 10 0H30C35.5228 0 40 4.47715 40 10V30C40 35.5228 35.5228 40 30 40H10C4.47715 40 0 35.5228 0 30V10Z" fill="url(#paint0_linear_12_7908)"/>
<path d="M20 16C24.9706 16 29 14.6569 29 13C29 11.3431 24.9706 10 20 10C15.0294 10 11 11.3431 11 13C11 14.6569 15.0294 16 20 16Z" stroke="white" stroke-width="2" stroke-linecap="round" stroke-linejoin="round"/>
<path d="M11 13V27C11 27.7956 11.9482 28.5587 13.636 29.1213C15.3239 29.6839 17.6131 30 20 30C22.3869 30 24.6761 29.6839 26.364 29.1213C28.0518 28.5587 29 27.7956 29 27V13" stroke="white" stroke-width="2" stroke-linecap="round" stroke-linejoin="round"/>
<path d="M11 20C11 20.7956 11.9482 21.5587 13.636 22.1213C15.3239 22.6839 17.6131 23 20 23C22.3869 23 24.6761 22.6839 26.364 22.1213C28.0518 21.5587 29 20.7956 29 20" stroke="white" stroke-width="2" stroke-linecap="round" stroke-linejoin="round"/>
<defs>
<linearGradient id="paint0_linear_12_7908" x1="0" y1="0" x2="40" y2="40" gradientUnits="userSpaceOnUse">
<stop stop-color="#F0B100"/>
<stop offset="1" stop-color="#F54900"/>
</linearGradient>
</defs>
</svg>
