<svg width="16" height="16" viewBox="0 0 16 16" fill="none" xmlns="http://www.w3.org/2000/svg">
<path d="M13.3333 1.33337H2.66659C1.93021 1.33337 1.33325 1.93033 1.33325 2.66671V5.33337C1.33325 6.06975 1.93021 6.66671 2.66659 6.66671H13.3333C14.0696 6.66671 14.6666 6.06975 14.6666 5.33337V2.66671C14.6666 1.93033 14.0696 1.33337 13.3333 1.33337Z" stroke="#A1A1A1" stroke-width="1.33333" stroke-linecap="round" stroke-linejoin="round"/>
<path d="M13.3333 9.33337H2.66659C1.93021 9.33337 1.33325 9.93033 1.33325 10.6667V13.3334C1.33325 14.0698 1.93021 14.6667 2.66659 14.6667H13.3333C14.0696 14.6667 14.6666 14.0698 14.6666 13.3334V10.6667C14.6666 9.93033 14.0696 9.33337 13.3333 9.33337Z" stroke="#A1A1A1" stroke-width="1.33333" stroke-linecap="round" stroke-linejoin="round"/>
<path d="M4 4H4.00667" stroke="#A1A1A1" stroke-width="1.33333" stroke-linecap="round" stroke-linejoin="round"/>
<path d="M4 12H4.00667" stroke="#A1A1A1" stroke-width="1.33333" stroke-linecap="round" stroke-linejoin="round"/>
</svg>
