<svg width="16" height="16" viewBox="0 0 16 16" fill="none" xmlns="http://www.w3.org/2000/svg">
<g clip-path="url(#clip0_63_723)">
<path d="M3.99609 12.6543V10.6562" stroke="#90A1B9" stroke-width="1.33203" stroke-linecap="round" stroke-linejoin="round"/>
<path d="M6.66016 12.6543V10.6562" stroke="#90A1B9" stroke-width="1.33203" stroke-linecap="round" stroke-linejoin="round"/>
<path d="M9.32422 12.6543V10.6562" stroke="#90A1B9" stroke-width="1.33203" stroke-linecap="round" stroke-linejoin="round"/>
<path d="M11.9883 12.6543V10.6562" stroke="#90A1B9" stroke-width="1.33203" stroke-linecap="round" stroke-linejoin="round"/>
<path d="M5.32812 7.32617V5.99414" stroke="#90A1B9" stroke-width="1.33203" stroke-linecap="round" stroke-linejoin="round"/>
<path d="M10.6562 7.32617V5.99414" stroke="#90A1B9" stroke-width="1.33203" stroke-linecap="round" stroke-linejoin="round"/>
<path d="M7.99219 7.32617V5.99414" stroke="#90A1B9" stroke-width="1.33203" stroke-linecap="round" stroke-linejoin="round"/>
<path d="M1.33203 9.99023H14.6523" stroke="#90A1B9" stroke-width="1.33203" stroke-linecap="round" stroke-linejoin="round"/>
<path d="M1.33203 4.66211C1.33203 4.30883 1.47237 3.97003 1.72217 3.72022C1.97198 3.47042 2.31079 3.33008 2.66406 3.33008H13.3203C13.6736 3.33008 14.0124 3.47042 14.2622 3.72022C14.512 3.97003 14.6523 4.30883 14.6523 4.66211V5.39473C14.3765 5.47599 14.1343 5.64437 13.962 5.87468C13.7898 6.10499 13.6967 6.38487 13.6967 6.67248C13.6967 6.96008 13.7898 7.23996 13.962 7.47027C14.1343 7.70059 14.3765 7.86896 14.6523 7.95023V11.3223C14.6523 11.6755 14.512 12.0143 14.2622 12.2642C14.0124 12.514 13.6736 12.6543 13.3203 12.6543H2.66406C2.31079 12.6543 1.97198 12.514 1.72217 12.2642C1.47237 12.0143 1.33203 11.6755 1.33203 11.3223V7.92559C1.60792 7.84432 1.85009 7.67595 2.02234 7.44563C2.1946 7.21532 2.28769 6.93544 2.28769 6.64783C2.28769 6.36023 2.1946 6.08035 2.02234 5.85004C1.85009 5.61972 1.60792 5.45135 1.33203 5.37008V4.66211Z" stroke="#90A1B9" stroke-width="1.33203" stroke-linecap="round" stroke-linejoin="round"/>
</g>
<defs>
<clipPath id="clip0_63_723">
<rect width="15.9844" height="15.9844" fill="white"/>
</clipPath>
</defs>
</svg>
