<svg width="12" height="12" viewBox="0 0 12 12" fill="none" xmlns="http://www.w3.org/2000/svg">
<path d="M2.5 2.50005C2.49995 2.3241 2.54632 2.15125 2.63444 1.99895C2.72256 1.84665 2.8493 1.7203 3.00188 1.63265C3.15445 1.545 3.32744 1.49916 3.50339 1.49976C3.67935 1.50036 3.85203 1.54737 4.004 1.63605L10.0025 5.13505C10.1539 5.22289 10.2796 5.34892 10.367 5.50055C10.4544 5.65218 10.5005 5.8241 10.5006 5.99912C10.5008 6.17414 10.455 6.34614 10.3678 6.49792C10.2807 6.6497 10.1552 6.77595 10.004 6.86405L4.004 10.3641C3.85203 10.4527 3.67935 10.4997 3.50339 10.5003C3.32744 10.5009 3.15445 10.4551 3.00188 10.3675C2.8493 10.2798 2.72256 10.1535 2.63444 10.0012C2.54632 9.84886 2.49995 9.67601 2.5 9.50005V2.50005Z" stroke="#62748E" stroke-linecap="round" stroke-linejoin="round"/>
</svg>
